<svg width="25" height="25" viewBox="0 0 25 25" fill="none" xmlns="http://www.w3.org/2000/svg">
<mask id="mask0_21_25" style="mask-type:alpha" maskUnits="userSpaceOnUse" x="0" y="0" width="25" height="25">
<rect x="0.450195" y="0.5" width="24" height="24" fill="white"/>
</mask>
<g mask="url(#mask0_21_25)">
<path fill-rule="evenodd" clip-rule="evenodd" d="M4.4502 4.5H20.4502C21.5548 4.5 22.4502 5.39543 22.4502 6.5V18.5C22.4502 19.6046 21.5548 20.5 20.4502 20.5H4.4502C3.34563 20.5 2.4502 19.6046 2.4502 18.5V6.5C2.4502 5.4 3.3502 4.5 4.4502 4.5V4.5ZM20.4502 7.88V6.5H4.4502V7.88L12.4502 11.88L20.4502 7.88V7.88ZM20.4502 10.1201L12.9002 13.8901C12.6171 14.0327 12.2832 14.0327 12.0002 13.8901L4.4502 10.1201V18.5001H20.4502V10.1201V10.1201Z" fill="#9E9E9E"/>
</g>
</svg>
