<svg width="18" height="18" viewBox="0 0 18 18" fill="none" xmlns="http://www.w3.org/2000/svg">
<mask id="mask0_12_1408" style="mask-type:alpha" maskUnits="userSpaceOnUse" x="0" y="0" width="18" height="18">
<rect width="18" height="18" fill="white"/>
</mask>
<g mask="url(#mask0_12_1408)">
<path fill-rule="evenodd" clip-rule="evenodd" d="M11.1893 0C12.3953 0 12.9983 0.8208 12.9983 1.7613C12.9983 2.9358 11.9507 4.0221 10.5872 4.0221C9.44514 4.0221 8.77914 3.3471 8.81064 2.2311C8.81064 1.2924 9.60354 0 11.1893 0ZM7.47845 17.9998C6.52625 17.9998 5.82875 17.413 6.49475 14.8282L7.58735 10.2454C7.77725 9.51282 7.80875 9.21852 7.58735 9.21852C7.30205 9.21852 6.06725 9.72432 5.33555 10.2238L4.86035 9.43182C7.17515 7.46442 9.83825 6.31152 10.9813 6.31152C11.9326 6.31152 12.091 7.45722 11.6158 9.21852L10.3639 14.0353C10.1425 14.8858 10.237 15.1792 10.4593 15.1792C10.7446 15.1792 11.6806 14.8264 12.6004 14.0929L13.1404 14.8255C10.8886 17.1178 8.42885 17.9998 7.47845 17.9998Z" fill="#9E9E9E"/>
</g>
</svg>
