<svg width="25" height="25" viewBox="0 0 25 25" fill="none" xmlns="http://www.w3.org/2000/svg">
<mask id="mask0_21_35" style="mask-type:alpha" maskUnits="userSpaceOnUse" x="0" y="0" width="25" height="25">
<rect x="0.450195" y="0.5" width="24" height="24" fill="white"/>
</mask>
<g mask="url(#mask0_21_35)">
<path fill-rule="evenodd" clip-rule="evenodd" d="M15.9017 12.21H7.77262C7.13126 12.21 6.61133 12.7299 6.61133 13.3713V19.1777C6.61133 19.8191 7.13126 20.339 7.77262 20.339H15.9017C16.543 20.339 17.0629 19.8191 17.0629 19.1777V13.3713C17.0629 12.7299 16.543 12.21 15.9017 12.21V12.21ZM7.77278 11.0488C6.49005 11.0488 5.4502 12.0887 5.4502 13.3714V19.1779C5.4502 20.4606 6.49005 21.5004 7.77278 21.5004H15.9018C17.1845 21.5004 18.2244 20.4606 18.2244 19.1779V13.3714C18.2244 12.0887 17.1845 11.0488 15.9018 11.0488H7.77278V11.0488ZM7.77246 7.56452C7.77246 6.11241 8.54715 4.7706 9.80472 4.04454C11.0623 3.31849 12.6117 3.31849 13.8692 4.04454C15.1268 4.7706 15.9015 6.1124 15.9015 7.56451V11.0484H14.7402V7.56452C14.7402 5.96111 13.4404 4.66129 11.837 4.66129C10.2336 4.66129 8.93376 5.9611 8.93375 7.5645V11.0484H7.77246V7.56452V7.56452Z" fill="#9E9E9E"/>
</g>
</svg>
